<svg width="304" height="177" viewBox="0 0 304 177" fill="none" xmlns="http://www.w3.org/2000/svg">
<g clip-path="url(#clip0_41_2973)">
<rect width="304" height="176.7" rx="15" fill="url(#paint0_linear_41_2973)"/>
<circle cx="6.65001" cy="217.075" r="156.275" fill="black" fill-opacity="0.1"/>
<circle cx="403.512" cy="332.263" r="267.662" fill="black" fill-opacity="0.1"/>
<circle cx="269.088" cy="49.1626" r="112.812" fill="white" fill-opacity="0.1"/>
<path d="M30.2899 84.4087C30.6152 84.4087 30.9006 84.3634 31.1459 84.2727C31.3912 84.1767 31.5966 84.046 31.7619 83.8807C31.9326 83.7154 32.0606 83.518 32.1459 83.2887C32.2312 83.0594 32.2739 82.8114 32.2739 82.5447C32.2739 81.91 32.0979 81.43 31.7459 81.1047C31.3939 80.7794 30.9086 80.6167 30.2899 80.6167C29.6712 80.6167 29.1859 80.7794 28.8339 81.1047C28.4819 81.43 28.3059 81.91 28.3059 82.5447C28.3059 82.8114 28.3486 83.0594 28.4339 83.2887C28.5192 83.518 28.6446 83.7154 28.8099 83.8807C28.9806 84.046 29.1886 84.1767 29.4339 84.2727C29.6792 84.3634 29.9646 84.4087 30.2899 84.4087ZM30.2899 75.6167C29.9966 75.6167 29.7432 75.662 29.5299 75.7527C29.3166 75.8434 29.1379 75.966 28.9939 76.1207C28.8552 76.27 28.7512 76.4434 28.6819 76.6407C28.6179 76.838 28.5859 77.046 28.5859 77.2647C28.5859 77.494 28.6126 77.718 28.6659 77.9367C28.7246 78.15 28.8206 78.342 28.9539 78.5127C29.0872 78.678 29.2632 78.8114 29.4819 78.9127C29.7006 79.014 29.9699 79.0647 30.2899 79.0647C30.6099 79.0647 30.8792 79.014 31.0979 78.9127C31.3166 78.8114 31.4926 78.678 31.6259 78.5127C31.7592 78.342 31.8526 78.15 31.9059 77.9367C31.9646 77.718 31.9939 77.494 31.9939 77.2647C31.9939 77.046 31.9592 76.838 31.8899 76.6407C31.8206 76.4434 31.7166 76.27 31.5779 76.1207C31.4392 75.966 31.2632 75.8434 31.0499 75.7527C30.8366 75.662 30.5832 75.6167 30.2899 75.6167ZM32.2419 79.7927C32.9459 80.022 33.4659 80.374 33.8019 80.8487C34.1379 81.318 34.3059 81.894 34.3059 82.5767C34.3059 83.0887 34.2072 83.5527 34.0099 83.9687C33.8179 84.3847 33.5459 84.7394 33.1939 85.0327C32.8419 85.326 32.4179 85.5527 31.9219 85.7127C31.4312 85.8727 30.8872 85.9527 30.2899 85.9527C29.6926 85.9527 29.1459 85.8727 28.6499 85.7127C28.1592 85.5527 27.7379 85.326 27.3859 85.0327C27.0339 84.7394 26.7592 84.3847 26.5619 83.9687C26.3699 83.5527 26.2739 83.0887 26.2739 82.5767C26.2739 81.894 26.4419 81.318 26.7779 80.8487C27.1139 80.374 27.6339 80.022 28.3379 79.7927C27.7779 79.558 27.3566 79.2247 27.0739 78.7927C26.7966 78.3607 26.6579 77.8407 26.6579 77.2327C26.6579 76.7954 26.7459 76.3874 26.9219 76.0087C27.1032 75.63 27.3539 75.302 27.6739 75.0247C27.9939 74.742 28.3752 74.5234 28.8179 74.3687C29.2659 74.2087 29.7566 74.1287 30.2899 74.1287C30.8232 74.1287 31.3112 74.2087 31.7539 74.3687C32.2019 74.5234 32.5859 74.742 32.9059 75.0247C33.2259 75.302 33.4739 75.63 33.6499 76.0087C33.8312 76.3874 33.9219 76.7954 33.9219 77.2327C33.9219 77.8407 33.7806 78.3607 33.4979 78.7927C33.2206 79.2247 32.8019 79.558 32.2419 79.7927ZM39.1072 78.4567L38.7072 78.9527C38.9312 78.8407 39.1712 78.7554 39.4272 78.6967C39.6885 78.6327 39.9685 78.6007 40.2672 78.6007C40.7045 78.6007 41.1285 78.6727 41.5392 78.8167C41.9552 78.9607 42.3205 79.1794 42.6352 79.4727C42.9498 79.7607 43.2032 80.1207 43.3952 80.5527C43.5872 80.9847 43.6832 81.4887 43.6832 82.0647C43.6832 82.6034 43.5845 83.11 43.3872 83.5847C43.1898 84.054 42.9125 84.4647 42.5552 84.8167C42.1978 85.1687 41.7658 85.446 41.2592 85.6487C40.7578 85.8514 40.2032 85.9527 39.5952 85.9527C38.9765 85.9527 38.4218 85.854 37.9312 85.6567C37.4405 85.4594 37.0218 85.1847 36.6752 84.8327C36.3285 84.4754 36.0618 84.0487 35.8752 83.5527C35.6938 83.0514 35.6032 82.4967 35.6032 81.8887C35.6032 81.3447 35.7125 80.7874 35.9312 80.2167C36.1552 79.6407 36.4992 79.0434 36.9632 78.4247L39.7232 74.7207C39.8192 74.5927 39.9578 74.4834 40.1392 74.3927C40.3258 74.302 40.5392 74.2567 40.7792 74.2567H42.5392L39.1072 78.4567ZM39.5552 84.3367C39.8698 84.3367 40.1578 84.2834 40.4192 84.1767C40.6858 84.07 40.9125 83.9207 41.0992 83.7287C41.2912 83.5367 41.4405 83.3127 41.5472 83.0567C41.6538 82.7954 41.7072 82.5127 41.7072 82.2087C41.7072 81.878 41.6565 81.582 41.5552 81.3207C41.4538 81.054 41.3098 80.83 41.1232 80.6487C40.9365 80.462 40.7125 80.3207 40.4512 80.2247C40.1898 80.1287 39.9018 80.0807 39.5872 80.0807C39.2725 80.0807 38.9872 80.134 38.7312 80.2407C38.4752 80.3474 38.2565 80.4967 38.0752 80.6887C37.8938 80.8754 37.7525 81.0994 37.6512 81.3607C37.5498 81.6167 37.4992 81.894 37.4992 82.1927C37.4992 82.5127 37.5418 82.806 37.6272 83.0727C37.7178 83.334 37.8485 83.558 38.0192 83.7447C38.1952 83.9314 38.4112 84.078 38.6672 84.1847C38.9232 84.286 39.2192 84.3367 39.5552 84.3367ZM52.0604 83.9847C52.2737 83.9847 52.4417 84.046 52.5644 84.1687C52.6924 84.286 52.7564 84.4434 52.7564 84.6407V85.8247H44.8204V85.1687C44.8204 85.0354 44.8471 84.8967 44.9004 84.7527C44.9591 84.6034 45.0497 84.47 45.1724 84.3527L48.6844 80.8327C48.9777 80.534 49.2391 80.2487 49.4684 79.9767C49.7031 79.7047 49.8977 79.4354 50.0524 79.1687C50.2071 78.902 50.3244 78.6327 50.4044 78.3607C50.4897 78.0834 50.5324 77.7927 50.5324 77.4887C50.5324 77.2114 50.4924 76.9687 50.4124 76.7607C50.3324 76.5474 50.2177 76.3687 50.0684 76.2247C49.9244 76.0807 49.7484 75.974 49.5404 75.9047C49.3377 75.83 49.1084 75.7927 48.8524 75.7927C48.6177 75.7927 48.3991 75.8274 48.1964 75.8967C47.9991 75.9607 47.8231 76.054 47.6684 76.1767C47.5137 76.294 47.3831 76.4327 47.2764 76.5927C47.1697 76.7527 47.0897 76.9287 47.0364 77.1207C46.9457 77.366 46.8284 77.5287 46.6844 77.6087C46.5404 77.6887 46.3324 77.7074 46.0604 77.6647L45.0204 77.4807C45.1004 76.926 45.2551 76.4407 45.4844 76.0247C45.7137 75.6034 45.9991 75.254 46.3404 74.9767C46.6871 74.694 47.0817 74.4834 47.5244 74.3447C47.9724 74.2007 48.4524 74.1287 48.9644 74.1287C49.4977 74.1287 49.9857 74.2087 50.4284 74.3687C50.8711 74.5234 51.2497 74.7447 51.5644 75.0327C51.8791 75.3207 52.1244 75.6674 52.3004 76.0727C52.4764 76.478 52.5644 76.9287 52.5644 77.4247C52.5644 77.8514 52.5004 78.246 52.3724 78.6087C52.2497 78.9714 52.0817 79.318 51.8684 79.6487C51.6604 79.9794 51.4151 80.2994 51.1324 80.6087C50.8497 80.918 50.5537 81.2327 50.2444 81.5527L47.6364 84.2167C47.8871 84.142 48.1351 84.086 48.3804 84.0487C48.6311 84.006 48.8684 83.9847 49.0924 83.9847H52.0604ZM56.1337 77.7287C56.1337 78.374 56.299 78.8674 56.6297 79.2087C56.9657 79.5447 57.4403 79.7127 58.0537 79.7127C58.3737 79.7127 58.659 79.662 58.9097 79.5607C59.1603 79.4594 59.371 79.3207 59.5417 79.1447C59.7123 78.9687 59.8403 78.7607 59.9257 78.5207C60.0163 78.2807 60.0617 78.022 60.0617 77.7447C60.0617 77.43 60.0137 77.15 59.9177 76.9047C59.8217 76.654 59.6857 76.4434 59.5097 76.2727C59.3337 76.102 59.123 75.9714 58.8777 75.8807C58.6377 75.79 58.3737 75.7447 58.0857 75.7447C57.787 75.7447 57.5177 75.7954 57.2777 75.8967C57.0377 75.9927 56.8323 76.1287 56.6617 76.3047C56.491 76.4807 56.3603 76.6914 56.2697 76.9367C56.179 77.1767 56.1337 77.4407 56.1337 77.7287ZM58.7577 81.3367C58.8483 81.2247 58.9337 81.1154 59.0137 81.0087C59.0937 80.902 59.171 80.7954 59.2457 80.6887C58.979 80.8594 58.6857 80.99 58.3657 81.0807C58.0457 81.166 57.7097 81.2087 57.3577 81.2087C56.9577 81.2087 56.5657 81.1394 56.1817 81.0007C55.7977 80.862 55.4563 80.654 55.1577 80.3767C54.859 80.094 54.6163 79.7474 54.4297 79.3367C54.2483 78.9207 54.1577 78.4354 54.1577 77.8807C54.1577 77.3634 54.2537 76.878 54.4457 76.4247C54.6377 75.9714 54.907 75.574 55.2537 75.2327C55.6003 74.8914 56.0163 74.622 56.5017 74.4247C56.987 74.2274 57.523 74.1287 58.1097 74.1287C58.7017 74.1287 59.2323 74.222 59.7017 74.4087C60.1763 74.5954 60.579 74.8567 60.9097 75.1927C61.2457 75.5287 61.5017 75.9314 61.6777 76.4007C61.859 76.87 61.9497 77.3847 61.9497 77.9447C61.9497 78.302 61.9177 78.6407 61.8537 78.9607C61.795 79.2807 61.7097 79.59 61.5977 79.8887C61.4857 80.182 61.3497 80.47 61.1897 80.7527C61.0297 81.0354 60.851 81.3154 60.6537 81.5927L58.0057 85.3687C57.915 85.4967 57.779 85.606 57.5977 85.6967C57.4163 85.782 57.211 85.8247 56.9817 85.8247H55.1657L58.7577 81.3367Z" fill="#F8F8F8"/>
<path d="M77.64 77.904C77.64 78.5493 77.8053 79.0427 78.136 79.384C78.472 79.72 78.9467 79.888 79.56 79.888C79.88 79.888 80.1653 79.8373 80.416 79.736C80.6667 79.6347 80.8773 79.496 81.048 79.32C81.2187 79.144 81.3467 78.936 81.432 78.696C81.5227 78.456 81.568 78.1973 81.568 77.92C81.568 77.6053 81.52 77.3253 81.424 77.08C81.328 76.8293 81.192 76.6187 81.016 76.448C80.84 76.2773 80.6293 76.1467 80.384 76.056C80.144 75.9653 79.88 75.92 79.592 75.92C79.2933 75.92 79.024 75.9707 78.784 76.072C78.544 76.168 78.3387 76.304 78.168 76.48C77.9973 76.656 77.8667 76.8667 77.776 77.112C77.6853 77.352 77.64 77.616 77.64 77.904ZM80.264 81.512C80.3547 81.4 80.44 81.2907 80.52 81.184C80.6 81.0773 80.6773 80.9707 80.752 80.864C80.4853 81.0347 80.192 81.1653 79.872 81.256C79.552 81.3413 79.216 81.384 78.864 81.384C78.464 81.384 78.072 81.3147 77.688 81.176C77.304 81.0373 76.9627 80.8293 76.664 80.552C76.3653 80.2693 76.1227 79.9227 75.936 79.512C75.7547 79.096 75.664 78.6107 75.664 78.056C75.664 77.5387 75.76 77.0533 75.952 76.6C76.144 76.1467 76.4133 75.7493 76.76 75.408C77.1067 75.0667 77.5227 74.7973 78.008 74.6C78.4933 74.4027 79.0293 74.304 79.616 74.304C80.208 74.304 80.7387 74.3973 81.208 74.584C81.6827 74.7707 82.0853 75.032 82.416 75.368C82.752 75.704 83.008 76.1067 83.184 76.576C83.3653 77.0453 83.456 77.56 83.456 78.12C83.456 78.4773 83.424 78.816 83.36 79.136C83.3013 79.456 83.216 79.7653 83.104 80.064C82.992 80.3573 82.856 80.6453 82.696 80.928C82.536 81.2107 82.3573 81.4907 82.16 81.768L79.512 85.544C79.4213 85.672 79.2853 85.7813 79.104 85.872C78.9227 85.9573 78.7173 86 78.488 86H76.672L80.264 81.512ZM92.1293 84.16C92.3426 84.16 92.5106 84.2213 92.6333 84.344C92.7613 84.4613 92.8253 84.6187 92.8253 84.816V86H84.8893V85.344C84.8893 85.2107 84.9159 85.072 84.9693 84.928C85.0279 84.7787 85.1186 84.6453 85.2413 84.528L88.7533 81.008C89.0466 80.7093 89.3079 80.424 89.5373 80.152C89.7719 79.88 89.9666 79.6107 90.1213 79.344C90.2759 79.0773 90.3933 78.808 90.4733 78.536C90.5586 78.2587 90.6013 77.968 90.6013 77.664C90.6013 77.3867 90.5613 77.144 90.4813 76.936C90.4013 76.7227 90.2866 76.544 90.1373 76.4C89.9933 76.256 89.8173 76.1493 89.6093 76.08C89.4066 76.0053 89.1773 75.968 88.9213 75.968C88.6866 75.968 88.4679 76.0027 88.2653 76.072C88.0679 76.136 87.8919 76.2293 87.7373 76.352C87.5826 76.4693 87.4519 76.608 87.3453 76.768C87.2386 76.928 87.1586 77.104 87.1053 77.296C87.0146 77.5413 86.8973 77.704 86.7533 77.784C86.6093 77.864 86.4013 77.8827 86.1293 77.84L85.0893 77.656C85.1693 77.1013 85.3239 76.616 85.5533 76.2C85.7826 75.7787 86.0679 75.4293 86.4093 75.152C86.7559 74.8693 87.1506 74.6587 87.5933 74.52C88.0413 74.376 88.5213 74.304 89.0333 74.304C89.5666 74.304 90.0546 74.384 90.4973 74.544C90.9399 74.6987 91.3186 74.92 91.6333 75.208C91.9479 75.496 92.1933 75.8427 92.3693 76.248C92.5453 76.6533 92.6333 77.104 92.6333 77.6C92.6333 78.0267 92.5693 78.4213 92.4413 78.784C92.3186 79.1467 92.1506 79.4933 91.9373 79.824C91.7293 80.1547 91.4839 80.4747 91.2013 80.784C90.9186 81.0933 90.6226 81.408 90.3133 81.728L87.7053 84.392C87.9559 84.3173 88.2039 84.2613 88.4493 84.224C88.6999 84.1813 88.9373 84.16 89.1613 84.16H92.1293ZM96.8105 78.632C97.0665 78.5787 97.3118 78.5413 97.5465 78.52C97.7812 78.4933 98.0078 78.48 98.2265 78.48C98.8345 78.48 99.3705 78.5707 99.8345 78.752C100.299 78.9333 100.688 79.184 101.003 79.504C101.317 79.824 101.555 80.2 101.715 80.632C101.875 81.0587 101.955 81.52 101.955 82.016C101.955 82.6293 101.845 83.1893 101.627 83.696C101.413 84.2027 101.115 84.6373 100.731 85C100.347 85.3573 99.8905 85.6347 99.3625 85.832C98.8398 86.0293 98.2692 86.128 97.6505 86.128C97.2878 86.128 96.9438 86.0907 96.6185 86.016C96.2932 85.9413 95.9865 85.8427 95.6985 85.72C95.4158 85.592 95.1518 85.448 94.9065 85.288C94.6665 85.1227 94.4505 84.9493 94.2585 84.768L94.8665 83.928C94.9945 83.7467 95.1625 83.656 95.3705 83.656C95.5038 83.656 95.6398 83.6987 95.7785 83.784C95.9172 83.8693 96.0745 83.9627 96.2505 84.064C96.4318 84.1653 96.6425 84.2587 96.8825 84.344C97.1278 84.4293 97.4212 84.472 97.7625 84.472C98.1252 84.472 98.4452 84.4133 98.7225 84.296C98.9998 84.1787 99.2292 84.016 99.4105 83.808C99.5972 83.5947 99.7358 83.344 99.8265 83.056C99.9225 82.7627 99.9705 82.4453 99.9705 82.104C99.9705 81.4747 99.7865 80.984 99.4185 80.632C99.0558 80.2747 98.5172 80.096 97.8025 80.096C97.2532 80.096 96.6905 80.1973 96.1145 80.4L94.8825 80.048L95.8425 74.432H101.555V75.272C101.555 75.5547 101.467 75.784 101.291 75.96C101.115 76.136 100.816 76.224 100.395 76.224H97.2185L96.8105 78.632ZM111.58 74.432V75.288C111.58 75.544 111.553 75.752 111.5 75.912C111.446 76.0667 111.393 76.1973 111.34 76.304L106.956 85.328C106.865 85.5147 106.737 85.6747 106.572 85.808C106.406 85.936 106.185 86 105.908 86H104.476L108.948 77.16C109.049 76.9787 109.148 76.8133 109.244 76.664C109.345 76.5093 109.457 76.3627 109.58 76.224H104.044C103.921 76.224 103.814 76.1787 103.724 76.088C103.633 75.9973 103.588 75.8907 103.588 75.768V74.432H111.58Z" fill="#F8F8F8"/>
<path d="M132.88 80.216C132.88 81.224 132.771 82.1013 132.552 82.848C132.339 83.5893 132.04 84.2027 131.656 84.688C131.277 85.1733 130.827 85.536 130.304 85.776C129.787 86.0107 129.227 86.128 128.624 86.128C128.021 86.128 127.461 86.0107 126.944 85.776C126.432 85.536 125.987 85.1733 125.608 84.688C125.229 84.2027 124.933 83.5893 124.72 82.848C124.507 82.1013 124.4 81.224 124.4 80.216C124.4 79.2027 124.507 78.3253 124.72 77.584C124.933 76.8427 125.229 76.2293 125.608 75.744C125.987 75.2587 126.432 74.8987 126.944 74.664C127.461 74.424 128.021 74.304 128.624 74.304C129.227 74.304 129.787 74.424 130.304 74.664C130.827 74.8987 131.277 75.2587 131.656 75.744C132.04 76.2293 132.339 76.8427 132.552 77.584C132.771 78.3253 132.88 79.2027 132.88 80.216ZM130.84 80.216C130.84 79.3787 130.779 78.6853 130.656 78.136C130.533 77.5867 130.368 77.1493 130.16 76.824C129.957 76.4987 129.723 76.272 129.456 76.144C129.189 76.0107 128.912 75.944 128.624 75.944C128.341 75.944 128.067 76.0107 127.8 76.144C127.539 76.272 127.307 76.4987 127.104 76.824C126.901 77.1493 126.739 77.5867 126.616 78.136C126.499 78.6853 126.44 79.3787 126.44 80.216C126.44 81.0533 126.499 81.7467 126.616 82.296C126.739 82.8453 126.901 83.2827 127.104 83.608C127.307 83.9333 127.539 84.1627 127.8 84.296C128.067 84.424 128.341 84.488 128.624 84.488C128.912 84.488 129.189 84.424 129.456 84.296C129.723 84.1627 129.957 83.9333 130.16 83.608C130.368 83.2827 130.533 82.8453 130.656 82.296C130.779 81.7467 130.84 81.0533 130.84 80.216ZM135.921 77.904C135.921 78.5493 136.087 79.0427 136.417 79.384C136.753 79.72 137.228 79.888 137.841 79.888C138.161 79.888 138.447 79.8373 138.697 79.736C138.948 79.6347 139.159 79.496 139.329 79.32C139.5 79.144 139.628 78.936 139.713 78.696C139.804 78.456 139.849 78.1973 139.849 77.92C139.849 77.6053 139.801 77.3253 139.705 77.08C139.609 76.8293 139.473 76.6187 139.297 76.448C139.121 76.2773 138.911 76.1467 138.665 76.056C138.425 75.9653 138.161 75.92 137.873 75.92C137.575 75.92 137.305 75.9707 137.065 76.072C136.825 76.168 136.62 76.304 136.449 76.48C136.279 76.656 136.148 76.8667 136.057 77.112C135.967 77.352 135.921 77.616 135.921 77.904ZM138.545 81.512C138.636 81.4 138.721 81.2907 138.801 81.184C138.881 81.0773 138.959 80.9707 139.033 80.864C138.767 81.0347 138.473 81.1653 138.153 81.256C137.833 81.3413 137.497 81.384 137.145 81.384C136.745 81.384 136.353 81.3147 135.969 81.176C135.585 81.0373 135.244 80.8293 134.945 80.552C134.647 80.2693 134.404 79.9227 134.217 79.512C134.036 79.096 133.945 78.6107 133.945 78.056C133.945 77.5387 134.041 77.0533 134.233 76.6C134.425 76.1467 134.695 75.7493 135.041 75.408C135.388 75.0667 135.804 74.7973 136.289 74.6C136.775 74.4027 137.311 74.304 137.897 74.304C138.489 74.304 139.02 74.3973 139.489 74.584C139.964 74.7707 140.367 75.032 140.697 75.368C141.033 75.704 141.289 76.1067 141.465 76.576C141.647 77.0453 141.737 77.56 141.737 78.12C141.737 78.4773 141.705 78.816 141.641 79.136C141.583 79.456 141.497 79.7653 141.385 80.064C141.273 80.3573 141.137 80.6453 140.977 80.928C140.817 81.2107 140.639 81.4907 140.441 81.768L137.793 85.544C137.703 85.672 137.567 85.7813 137.385 85.872C137.204 85.9573 136.999 86 136.769 86H134.953L138.545 81.512ZM150.411 84.16C150.624 84.16 150.792 84.2213 150.915 84.344C151.043 84.4613 151.107 84.6187 151.107 84.816V86H143.171V85.344C143.171 85.2107 143.197 85.072 143.251 84.928C143.309 84.7787 143.4 84.6453 143.523 84.528L147.035 81.008C147.328 80.7093 147.589 80.424 147.819 80.152C148.053 79.88 148.248 79.6107 148.403 79.344C148.557 79.0773 148.675 78.808 148.755 78.536C148.84 78.2587 148.883 77.968 148.883 77.664C148.883 77.3867 148.843 77.144 148.763 76.936C148.683 76.7227 148.568 76.544 148.419 76.4C148.275 76.256 148.099 76.1493 147.891 76.08C147.688 76.0053 147.459 75.968 147.203 75.968C146.968 75.968 146.749 76.0027 146.547 76.072C146.349 76.136 146.173 76.2293 146.019 76.352C145.864 76.4693 145.733 76.608 145.627 76.768C145.52 76.928 145.44 77.104 145.387 77.296C145.296 77.5413 145.179 77.704 145.035 77.784C144.891 77.864 144.683 77.8827 144.411 77.84L143.371 77.656C143.451 77.1013 143.605 76.616 143.835 76.2C144.064 75.7787 144.349 75.4293 144.691 75.152C145.037 74.8693 145.432 74.6587 145.875 74.52C146.323 74.376 146.803 74.304 147.315 74.304C147.848 74.304 148.336 74.384 148.779 74.544C149.221 74.6987 149.6 74.92 149.915 75.208C150.229 75.496 150.475 75.8427 150.651 76.248C150.827 76.6533 150.915 77.104 150.915 77.6C150.915 78.0267 150.851 78.4213 150.723 78.784C150.6 79.1467 150.432 79.4933 150.219 79.824C150.011 80.1547 149.765 80.4747 149.483 80.784C149.2 81.0933 148.904 81.408 148.595 81.728L145.987 84.392C146.237 84.3173 146.485 84.2613 146.731 84.224C146.981 84.1813 147.219 84.16 147.443 84.16H150.411ZM156.484 84.584C156.809 84.584 157.094 84.5387 157.34 84.448C157.585 84.352 157.79 84.2213 157.956 84.056C158.126 83.8907 158.254 83.6933 158.34 83.464C158.425 83.2347 158.468 82.9867 158.468 82.72C158.468 82.0853 158.292 81.6053 157.94 81.28C157.588 80.9547 157.102 80.792 156.484 80.792C155.865 80.792 155.38 80.9547 155.028 81.28C154.676 81.6053 154.5 82.0853 154.5 82.72C154.5 82.9867 154.542 83.2347 154.628 83.464C154.713 83.6933 154.838 83.8907 155.004 84.056C155.174 84.2213 155.382 84.352 155.628 84.448C155.873 84.5387 156.158 84.584 156.484 84.584ZM156.484 75.792C156.19 75.792 155.937 75.8373 155.724 75.928C155.51 76.0187 155.332 76.1413 155.188 76.296C155.049 76.4453 154.945 76.6187 154.876 76.816C154.812 77.0133 154.78 77.2213 154.78 77.44C154.78 77.6693 154.806 77.8933 154.86 78.112C154.918 78.3253 155.014 78.5173 155.148 78.688C155.281 78.8533 155.457 78.9867 155.676 79.088C155.894 79.1893 156.164 79.24 156.484 79.24C156.804 79.24 157.073 79.1893 157.292 79.088C157.51 78.9867 157.686 78.8533 157.82 78.688C157.953 78.5173 158.046 78.3253 158.1 78.112C158.158 77.8933 158.188 77.6693 158.188 77.44C158.188 77.2213 158.153 77.0133 158.084 76.816C158.014 76.6187 157.91 76.4453 157.772 76.296C157.633 76.1413 157.457 76.0187 157.244 75.928C157.03 75.8373 156.777 75.792 156.484 75.792ZM158.436 79.968C159.14 80.1973 159.66 80.5493 159.996 81.024C160.332 81.4933 160.5 82.0693 160.5 82.752C160.5 83.264 160.401 83.728 160.204 84.144C160.012 84.56 159.74 84.9147 159.388 85.208C159.036 85.5013 158.612 85.728 158.116 85.888C157.625 86.048 157.081 86.128 156.484 86.128C155.886 86.128 155.34 86.048 154.844 85.888C154.353 85.728 153.932 85.5013 153.58 85.208C153.228 84.9147 152.953 84.56 152.756 84.144C152.564 83.728 152.468 83.264 152.468 82.752C152.468 82.0693 152.636 81.4933 152.972 81.024C153.308 80.5493 153.828 80.1973 154.532 79.968C153.972 79.7333 153.55 79.4 153.268 78.968C152.99 78.536 152.852 78.016 152.852 77.408C152.852 76.9707 152.94 76.5627 153.116 76.184C153.297 75.8053 153.548 75.4773 153.868 75.2C154.188 74.9173 154.569 74.6987 155.012 74.544C155.46 74.384 155.95 74.304 156.484 74.304C157.017 74.304 157.505 74.384 157.948 74.544C158.396 74.6987 158.78 74.9173 159.1 75.2C159.42 75.4773 159.668 75.8053 159.844 76.184C160.025 76.5627 160.116 76.9707 160.116 77.408C160.116 78.016 159.974 78.536 159.692 78.968C159.414 79.4 158.996 79.7333 158.436 79.968Z" fill="#F8F8F8"/>
<path d="M170.864 76.656C170.944 76.1013 171.099 75.616 171.328 75.2C171.557 74.7787 171.843 74.4293 172.184 74.152C172.531 73.8693 172.925 73.6587 173.368 73.52C173.816 73.376 174.296 73.304 174.808 73.304C175.341 73.304 175.821 73.3813 176.248 73.536C176.68 73.6853 177.048 73.896 177.352 74.168C177.656 74.4347 177.888 74.7493 178.048 75.112C178.213 75.4747 178.296 75.8667 178.296 76.288C178.296 76.656 178.253 76.9813 178.168 77.264C178.088 77.5413 177.971 77.784 177.816 77.992C177.661 78.2 177.469 78.376 177.24 78.52C177.011 78.664 176.752 78.784 176.464 78.88C177.157 79.0987 177.675 79.432 178.016 79.88C178.357 80.328 178.528 80.8907 178.528 81.568C178.528 82.144 178.421 82.6533 178.208 83.096C177.995 83.5387 177.707 83.912 177.344 84.216C176.981 84.5147 176.56 84.7413 176.08 84.896C175.605 85.0507 175.101 85.128 174.568 85.128C173.987 85.128 173.48 85.0613 173.048 84.928C172.616 84.7947 172.24 84.5973 171.92 84.336C171.6 84.0747 171.328 83.7547 171.104 83.376C170.88 82.9973 170.688 82.56 170.528 82.064L171.4 81.704C171.629 81.608 171.843 81.584 172.04 81.632C172.243 81.6747 172.389 81.7813 172.48 81.952C172.576 82.1387 172.68 82.3227 172.792 82.504C172.909 82.6853 173.048 82.848 173.208 82.992C173.368 83.1307 173.555 83.2453 173.768 83.336C173.987 83.4213 174.245 83.464 174.544 83.464C174.88 83.464 175.173 83.4107 175.424 83.304C175.675 83.192 175.883 83.048 176.048 82.872C176.219 82.696 176.344 82.5013 176.424 82.288C176.509 82.0693 176.552 81.8507 176.552 81.632C176.552 81.3547 176.523 81.104 176.464 80.88C176.405 80.6507 176.283 80.456 176.096 80.296C175.909 80.136 175.64 80.0107 175.288 79.92C174.941 79.8293 174.475 79.784 173.888 79.784V78.376C174.373 78.3707 174.776 78.3253 175.096 78.24C175.416 78.1547 175.669 78.0373 175.856 77.888C176.048 77.7333 176.181 77.5493 176.256 77.336C176.331 77.1227 176.368 76.888 176.368 76.632C176.368 76.088 176.216 75.6747 175.912 75.392C175.608 75.1093 175.203 74.968 174.696 74.968C174.461 74.968 174.245 75.0027 174.048 75.072C173.851 75.136 173.672 75.2293 173.512 75.352C173.357 75.4693 173.227 75.608 173.12 75.768C173.013 75.928 172.933 76.104 172.88 76.296C172.789 76.5413 172.669 76.704 172.52 76.784C172.376 76.864 172.171 76.8827 171.904 76.84L170.864 76.656ZM184.977 80.64V76.856C184.977 76.4987 185.001 76.104 185.049 75.672L181.457 80.64H184.977ZM188.153 80.64V81.784C188.153 81.8907 188.119 81.984 188.049 82.064C187.98 82.1387 187.881 82.176 187.753 82.176H186.697V85H184.977V82.176H180.097C179.964 82.176 179.847 82.136 179.745 82.056C179.644 81.9707 179.58 81.8667 179.553 81.744L179.345 80.744L184.825 73.424H186.697V80.64H188.153ZM191.811 77.632C192.067 77.5787 192.312 77.5413 192.547 77.52C192.781 77.4933 193.008 77.48 193.227 77.48C193.835 77.48 194.371 77.5707 194.835 77.752C195.299 77.9333 195.688 78.184 196.003 78.504C196.317 78.824 196.555 79.2 196.715 79.632C196.875 80.0587 196.955 80.52 196.955 81.016C196.955 81.6293 196.845 82.1893 196.627 82.696C196.413 83.2027 196.115 83.6373 195.731 84C195.347 84.3573 194.891 84.6347 194.363 84.832C193.84 85.0293 193.269 85.128 192.651 85.128C192.288 85.128 191.944 85.0907 191.619 85.016C191.293 84.9413 190.987 84.8427 190.699 84.72C190.416 84.592 190.152 84.448 189.907 84.288C189.667 84.1227 189.451 83.9493 189.259 83.768L189.867 82.928C189.995 82.7467 190.163 82.656 190.371 82.656C190.504 82.656 190.64 82.6987 190.779 82.784C190.917 82.8693 191.075 82.9627 191.251 83.064C191.432 83.1653 191.643 83.2587 191.883 83.344C192.128 83.4293 192.421 83.472 192.763 83.472C193.125 83.472 193.445 83.4133 193.723 83.296C194 83.1787 194.229 83.016 194.411 82.808C194.597 82.5947 194.736 82.344 194.827 82.056C194.923 81.7627 194.971 81.4453 194.971 81.104C194.971 80.4747 194.787 79.984 194.419 79.632C194.056 79.2747 193.517 79.096 192.803 79.096C192.253 79.096 191.691 79.1973 191.115 79.4L189.883 79.048L190.843 73.432H196.555V74.272C196.555 74.5547 196.467 74.784 196.291 74.96C196.115 75.136 195.816 75.224 195.395 75.224H192.219L191.811 77.632ZM202.02 77.632L201.62 78.128C201.844 78.016 202.084 77.9307 202.34 77.872C202.601 77.808 202.881 77.776 203.18 77.776C203.617 77.776 204.041 77.848 204.452 77.992C204.868 78.136 205.233 78.3547 205.548 78.648C205.862 78.936 206.116 79.296 206.308 79.728C206.5 80.16 206.596 80.664 206.596 81.24C206.596 81.7787 206.497 82.2853 206.3 82.76C206.102 83.2293 205.825 83.64 205.468 83.992C205.11 84.344 204.678 84.6213 204.172 84.824C203.67 85.0267 203.116 85.128 202.508 85.128C201.889 85.128 201.334 85.0293 200.844 84.832C200.353 84.6347 199.934 84.36 199.588 84.008C199.241 83.6507 198.974 83.224 198.788 82.728C198.606 82.2267 198.516 81.672 198.516 81.064C198.516 80.52 198.625 79.9627 198.844 79.392C199.068 78.816 199.412 78.2187 199.876 77.6L202.636 73.896C202.732 73.768 202.87 73.6587 203.052 73.568C203.238 73.4773 203.452 73.432 203.692 73.432H205.452L202.02 77.632ZM202.468 83.512C202.782 83.512 203.07 83.4587 203.332 83.352C203.598 83.2453 203.825 83.096 204.012 82.904C204.204 82.712 204.353 82.488 204.46 82.232C204.566 81.9707 204.62 81.688 204.62 81.384C204.62 81.0533 204.569 80.7573 204.468 80.496C204.366 80.2293 204.222 80.0053 204.036 79.824C203.849 79.6373 203.625 79.496 203.364 79.4C203.102 79.304 202.814 79.256 202.5 79.256C202.185 79.256 201.9 79.3093 201.644 79.416C201.388 79.5227 201.169 79.672 200.988 79.864C200.806 80.0507 200.665 80.2747 200.564 80.536C200.462 80.792 200.412 81.0693 200.412 81.368C200.412 81.688 200.454 81.9813 200.54 82.248C200.63 82.5093 200.761 82.7333 200.932 82.92C201.108 83.1067 201.324 83.2533 201.58 83.36C201.836 83.4613 202.132 83.512 202.468 83.512Z" fill="#F8F8F8"/>
<path d="M30.4985 106.884L28.418 112H27.7375L25.657 106.884H26.2627C26.3292 106.884 26.3826 106.901 26.423 106.934C26.4657 106.967 26.4978 107.01 26.5192 107.062L27.9014 110.539C27.9347 110.625 27.9667 110.719 27.9976 110.821C28.0308 110.923 28.0605 111.03 28.0867 111.141C28.1104 111.03 28.1365 110.923 28.165 110.821C28.1935 110.719 28.2244 110.625 28.2577 110.539L29.6363 107.062C29.653 107.015 29.6827 106.973 29.7254 106.938C29.7705 106.902 29.8252 106.884 29.8893 106.884H30.4985ZM32.411 110.393C32.1283 110.403 31.8885 110.425 31.6913 110.461C31.4942 110.494 31.3339 110.539 31.2104 110.596C31.0869 110.653 30.9978 110.721 30.9432 110.799C30.8886 110.875 30.8613 110.961 30.8613 111.056C30.8613 111.146 30.8755 111.225 30.904 111.291C30.9349 111.355 30.9753 111.409 31.0252 111.451C31.0774 111.492 31.138 111.521 31.2068 111.54C31.2757 111.559 31.3505 111.569 31.4313 111.569C31.5382 111.569 31.6355 111.558 31.7234 111.537C31.8137 111.515 31.898 111.486 31.9763 111.448C32.0547 111.407 32.1295 111.359 32.2008 111.302C32.272 111.245 32.3421 111.179 32.411 111.106V110.393ZM30.3732 108.886C30.5751 108.694 30.7936 108.55 31.0287 108.455C31.2662 108.36 31.5263 108.313 31.8089 108.313C32.0155 108.313 32.1984 108.347 32.3575 108.416C32.5167 108.483 32.6508 108.576 32.7601 108.698C32.8693 108.819 32.9513 108.964 33.0059 109.132C33.0629 109.301 33.0914 109.487 33.0914 109.691V112H32.7815C32.7126 112 32.6603 111.989 32.6247 111.968C32.5891 111.944 32.5606 111.901 32.5392 111.84L32.4644 111.523C32.3718 111.608 32.2803 111.684 32.1901 111.751C32.0998 111.815 32.0048 111.871 31.9051 111.918C31.8077 111.963 31.7032 111.998 31.5916 112.021C31.48 112.045 31.3565 112.057 31.2211 112.057C31.0786 112.057 30.9444 112.038 30.8185 112C30.695 111.96 30.587 111.899 30.4943 111.818C30.4017 111.738 30.3281 111.637 30.2735 111.515C30.2212 111.394 30.1951 111.253 30.1951 111.092C30.1951 110.949 30.2331 110.812 30.3091 110.682C30.3875 110.549 30.5133 110.43 30.6867 110.326C30.8625 110.221 31.0905 110.136 31.3707 110.069C31.6533 110.003 32.0001 109.965 32.411 109.955V109.691C32.411 109.418 32.3528 109.214 32.2364 109.079C32.12 108.943 31.949 108.876 31.7234 108.876C31.5714 108.876 31.4432 108.895 31.3387 108.933C31.2365 108.971 31.1475 109.013 31.0715 109.061C30.9978 109.106 30.9325 109.148 30.8755 109.186C30.8209 109.224 30.7639 109.243 30.7045 109.243C30.657 109.243 30.6155 109.23 30.5798 109.203C30.5466 109.177 30.5193 109.146 30.4979 109.111L30.3732 108.886ZM34.7339 106.742V112H34.0356V106.742H34.7339ZM36.4529 108.38V112H35.7582V108.38H36.4529ZM36.5847 107.262C36.5847 107.326 36.5716 107.388 36.5455 107.447C36.5194 107.504 36.4837 107.555 36.4386 107.6C36.3959 107.643 36.3448 107.677 36.2854 107.704C36.226 107.727 36.1643 107.739 36.1002 107.739C36.036 107.739 35.9755 107.727 35.9185 107.704C35.8615 107.677 35.8104 107.643 35.7653 107.6C35.7225 107.555 35.6881 107.504 35.662 107.447C35.6382 107.388 35.6264 107.326 35.6264 107.262C35.6264 107.195 35.6382 107.134 35.662 107.077C35.6881 107.017 35.7225 106.966 35.7653 106.923C35.8104 106.878 35.8615 106.844 35.9185 106.82C35.9755 106.794 36.036 106.781 36.1002 106.781C36.1643 106.781 36.226 106.794 36.2854 106.82C36.3448 106.844 36.3959 106.878 36.4386 106.923C36.4837 106.966 36.5194 107.017 36.5455 107.077C36.5716 107.134 36.5847 107.195 36.5847 107.262ZM39.7921 109.257C39.6781 109.107 39.5546 109.003 39.4216 108.943C39.291 108.884 39.1437 108.854 38.9798 108.854C38.6616 108.854 38.4146 108.969 38.2388 109.2C38.0655 109.428 37.9788 109.762 37.9788 110.201C37.9788 110.431 37.9978 110.628 38.0358 110.792C38.0761 110.954 38.1331 111.087 38.2068 111.191C38.2828 111.293 38.3754 111.369 38.4846 111.419C38.5939 111.467 38.7174 111.491 38.8551 111.491C39.057 111.491 39.2316 111.445 39.3788 111.355C39.5261 111.265 39.6638 111.138 39.7921 110.974V109.257ZM40.4903 106.742V112H40.07C39.9726 112 39.912 111.954 39.8883 111.861L39.8277 111.444C39.6733 111.627 39.4976 111.774 39.3005 111.886C39.1057 111.995 38.8801 112.05 38.6236 112.05C38.417 112.05 38.2293 112.009 38.0607 111.929C37.8945 111.848 37.752 111.73 37.6332 111.576C37.5145 111.419 37.423 111.226 37.3589 110.995C37.2948 110.765 37.2627 110.5 37.2627 110.201C37.2627 109.933 37.2983 109.683 37.3696 109.453C37.4408 109.222 37.5441 109.023 37.6795 108.854C37.8149 108.686 37.9788 108.554 38.1711 108.459C38.3635 108.361 38.5808 108.313 38.8231 108.313C39.0416 108.313 39.2268 108.348 39.3788 108.42C39.5332 108.491 39.671 108.592 39.7921 108.722V106.742H40.4903ZM46.6923 112H45.9941V108.943H44.1772V111.063C44.1772 111.206 44.2116 111.312 44.2805 111.384C44.3517 111.453 44.442 111.487 44.5512 111.487C44.6154 111.487 44.67 111.479 44.7151 111.462C44.7626 111.445 44.803 111.428 44.8362 111.409C44.8695 111.387 44.898 111.368 44.9217 111.352C44.9455 111.335 44.9669 111.327 44.9859 111.327C45.0096 111.327 45.0274 111.333 45.0393 111.344C45.0536 111.354 45.0678 111.371 45.0821 111.394L45.2887 111.729C45.1747 111.834 45.0393 111.914 44.8826 111.971C44.7258 112.029 44.5631 112.057 44.3945 112.057C44.1024 112.057 43.8767 111.975 43.7176 111.811C43.5609 111.647 43.4825 111.413 43.4825 111.109V108.943H43.0621C43.0217 108.943 42.9873 108.931 42.9588 108.908C42.9327 108.882 42.9196 108.844 42.9196 108.794V108.512L43.511 108.43L43.6642 107.351C43.6737 107.311 43.6915 107.28 43.7176 107.258C43.7461 107.235 43.7817 107.223 43.8245 107.223H44.1772V108.437H46.6923V112ZM46.8491 107.24C46.8491 107.305 46.836 107.366 46.8099 107.426C46.7837 107.483 46.7481 107.534 46.703 107.579C46.6602 107.622 46.6092 107.656 46.5498 107.682C46.4904 107.706 46.4287 107.718 46.3646 107.718C46.3004 107.718 46.2399 107.706 46.1829 107.682C46.1259 107.656 46.0748 107.622 46.0297 107.579C45.9869 107.534 45.9525 107.483 45.9264 107.426C45.9026 107.366 45.8907 107.305 45.8907 107.24C45.8907 107.174 45.9026 107.111 45.9264 107.052C45.9525 106.992 45.9869 106.941 46.0297 106.898C46.0748 106.853 46.1259 106.819 46.1829 106.795C46.2399 106.769 46.3004 106.756 46.3646 106.756C46.4287 106.756 46.4904 106.769 46.5498 106.795C46.6092 106.819 46.6602 106.853 46.703 106.898C46.7481 106.941 46.7837 106.992 46.8099 107.052C46.836 107.111 46.8491 107.174 46.8491 107.24ZM48.4133 106.742V112H47.7151V106.742H48.4133ZM50.118 106.742V112H49.4198V106.742H50.118Z" fill="#DDDDDD"/>
<path d="M31.1999 123.71C31.1999 124.34 31.1316 124.888 30.9949 125.355C30.8616 125.818 30.6749 126.201 30.4349 126.505C30.1982 126.808 29.9166 127.035 29.5899 127.185C29.2666 127.331 28.9166 127.405 28.5399 127.405C28.1632 127.405 27.8132 127.331 27.4899 127.185C27.1699 127.035 26.8916 126.808 26.6549 126.505C26.4182 126.201 26.2332 125.818 26.0999 125.355C25.9666 124.888 25.8999 124.34 25.8999 123.71C25.8999 123.076 25.9666 122.528 26.0999 122.065C26.2332 121.601 26.4182 121.218 26.6549 120.915C26.8916 120.611 27.1699 120.386 27.4899 120.24C27.8132 120.09 28.1632 120.015 28.5399 120.015C28.9166 120.015 29.2666 120.09 29.5899 120.24C29.9166 120.386 30.1982 120.611 30.4349 120.915C30.6749 121.218 30.8616 121.601 30.9949 122.065C31.1316 122.528 31.1999 123.076 31.1999 123.71ZM29.9249 123.71C29.9249 123.186 29.8866 122.753 29.8099 122.41C29.7332 122.066 29.6299 121.793 29.4999 121.59C29.3732 121.386 29.2266 121.245 29.0599 121.165C28.8932 121.081 28.7199 121.04 28.5399 121.04C28.3632 121.04 28.1916 121.081 28.0249 121.165C27.8616 121.245 27.7166 121.386 27.5899 121.59C27.4632 121.793 27.3616 122.066 27.2849 122.41C27.2116 122.753 27.1749 123.186 27.1749 123.71C27.1749 124.233 27.2116 124.666 27.2849 125.01C27.3616 125.353 27.4632 125.626 27.5899 125.83C27.7166 126.033 27.8616 126.176 28.0249 126.26C28.1916 126.34 28.3632 126.38 28.5399 126.38C28.7199 126.38 28.8932 126.34 29.0599 126.26C29.2266 126.176 29.3732 126.033 29.4999 125.83C29.6299 125.626 29.7332 125.353 29.8099 125.01C29.8866 124.666 29.9249 124.233 29.9249 123.71ZM33.1007 122.265C33.1007 122.668 33.204 122.976 33.4107 123.19C33.6207 123.4 33.9174 123.505 34.3007 123.505C34.5007 123.505 34.679 123.473 34.8357 123.41C34.9924 123.346 35.124 123.26 35.2307 123.15C35.3374 123.04 35.4174 122.91 35.4707 122.76C35.5274 122.61 35.5557 122.448 35.5557 122.275C35.5557 122.078 35.5257 121.903 35.4657 121.75C35.4057 121.593 35.3207 121.461 35.2107 121.355C35.1007 121.248 34.969 121.166 34.8157 121.11C34.6657 121.053 34.5007 121.025 34.3207 121.025C34.134 121.025 33.9657 121.056 33.8157 121.12C33.6657 121.18 33.5374 121.265 33.4307 121.375C33.324 121.485 33.2424 121.616 33.1857 121.77C33.129 121.92 33.1007 122.085 33.1007 122.265ZM34.7407 124.52C34.7974 124.45 34.8507 124.381 34.9007 124.315C34.9507 124.248 34.999 124.181 35.0457 124.115C34.879 124.221 34.6957 124.303 34.4957 124.36C34.2957 124.413 34.0857 124.44 33.8657 124.44C33.6157 124.44 33.3707 124.396 33.1307 124.31C32.8907 124.223 32.6774 124.093 32.4907 123.92C32.304 123.743 32.1524 123.526 32.0357 123.27C31.9224 123.01 31.8657 122.706 31.8657 122.36C31.8657 122.036 31.9257 121.733 32.0457 121.45C32.1657 121.166 32.334 120.918 32.5507 120.705C32.7674 120.491 33.0274 120.323 33.3307 120.2C33.634 120.076 33.969 120.015 34.3357 120.015C34.7057 120.015 35.0374 120.073 35.3307 120.19C35.6274 120.306 35.879 120.47 36.0857 120.68C36.2957 120.89 36.4557 121.141 36.5657 121.435C36.679 121.728 36.7357 122.05 36.7357 122.4C36.7357 122.623 36.7157 122.835 36.6757 123.035C36.639 123.235 36.5857 123.428 36.5157 123.615C36.4457 123.798 36.3607 123.978 36.2607 124.155C36.1607 124.331 36.049 124.506 35.9257 124.68L34.2707 127.04C34.214 127.12 34.129 127.188 34.0157 127.245C33.9024 127.298 33.774 127.325 33.6307 127.325H32.4957L34.7407 124.52ZM38.7215 127.34C38.6648 127.493 38.5731 127.608 38.4465 127.685C38.3231 127.761 38.1965 127.8 38.0665 127.8H37.5415L40.4615 120.33C40.5148 120.19 40.5965 120.083 40.7065 120.01C40.8165 119.933 40.9448 119.895 41.0915 119.895H41.6215L38.7215 127.34ZM46.8147 126.175C46.948 126.175 47.053 126.213 47.1297 126.29C47.2097 126.363 47.2497 126.461 47.2497 126.585V127.325H42.2897V126.915C42.2897 126.831 42.3063 126.745 42.3397 126.655C42.3763 126.561 42.433 126.478 42.5097 126.405L44.7047 124.205C44.888 124.018 45.0513 123.84 45.1947 123.67C45.3413 123.5 45.463 123.331 45.5597 123.165C45.6563 122.998 45.7297 122.83 45.7797 122.66C45.833 122.486 45.8597 122.305 45.8597 122.115C45.8597 121.941 45.8347 121.79 45.7847 121.66C45.7347 121.526 45.663 121.415 45.5697 121.325C45.4797 121.235 45.3697 121.168 45.2397 121.125C45.113 121.078 44.9697 121.055 44.8097 121.055C44.663 121.055 44.5263 121.076 44.3997 121.12C44.2763 121.16 44.1663 121.218 44.0697 121.295C43.973 121.368 43.8913 121.455 43.8247 121.555C43.758 121.655 43.708 121.765 43.6747 121.885C43.618 122.038 43.5447 122.14 43.4547 122.19C43.3647 122.24 43.2347 122.251 43.0647 122.225L42.4147 122.11C42.4647 121.763 42.5613 121.46 42.7047 121.2C42.848 120.936 43.0263 120.718 43.2397 120.545C43.4563 120.368 43.703 120.236 43.9797 120.15C44.2597 120.06 44.5597 120.015 44.8797 120.015C45.213 120.015 45.518 120.065 45.7947 120.165C46.0713 120.261 46.308 120.4 46.5047 120.58C46.7013 120.76 46.8547 120.976 46.9647 121.23C47.0747 121.483 47.1297 121.765 47.1297 122.075C47.1297 122.341 47.0897 122.588 47.0097 122.815C46.933 123.041 46.828 123.258 46.6947 123.465C46.5647 123.671 46.4113 123.871 46.2347 124.065C46.058 124.258 45.873 124.455 45.6797 124.655L44.0497 126.32C44.2063 126.273 44.3613 126.238 44.5147 126.215C44.6713 126.188 44.8197 126.175 44.9597 126.175H46.8147ZM51.2704 124.6V122.235C51.2704 122.011 51.2854 121.765 51.3154 121.495L49.0704 124.6H51.2704ZM53.2554 124.6V125.315C53.2554 125.381 53.2338 125.44 53.1904 125.49C53.1471 125.536 53.0854 125.56 53.0054 125.56H52.3454V127.325H51.2704V125.56H48.2204C48.1371 125.56 48.0638 125.535 48.0004 125.485C47.9371 125.431 47.8971 125.366 47.8804 125.29L47.7504 124.665L51.1754 120.09H52.3454V124.6H53.2554Z" fill="#F8F8F8"/>
<path d="M31.15 152.232L29.742 148.384C29.6727 148.213 29.6007 148.011 29.526 147.776C29.4513 147.541 29.3767 147.288 29.302 147.016C29.2327 147.288 29.1607 147.544 29.086 147.784C29.0113 148.019 28.9393 148.224 28.87 148.4L27.47 152.232H31.15ZM34.95 156.6H33.286C33.0993 156.6 32.9473 156.555 32.83 156.464C32.7127 156.368 32.6247 156.251 32.566 156.112L31.702 153.752H26.91L26.046 156.112C26.0033 156.235 25.9207 156.347 25.798 156.448C25.6753 156.549 25.5233 156.6 25.342 156.6H23.662L28.214 145.032H30.406L34.95 156.6ZM37.6838 149.816C37.9398 149.325 38.2438 148.941 38.5958 148.664C38.9478 148.381 39.3638 148.24 39.8438 148.24C40.2224 148.24 40.5264 148.323 40.7558 148.488L40.6278 149.968C40.6011 150.064 40.5611 150.133 40.5078 150.176C40.4598 150.213 40.3931 150.232 40.3078 150.232C40.2278 150.232 40.1078 150.219 39.9478 150.192C39.7931 150.165 39.6411 150.152 39.4918 150.152C39.2731 150.152 39.0784 150.184 38.9078 150.248C38.7371 150.312 38.5824 150.405 38.4438 150.528C38.3104 150.645 38.1904 150.789 38.0838 150.96C37.9824 151.131 37.8864 151.325 37.7958 151.544V156.6H35.8198V148.392H36.9798C37.1824 148.392 37.3238 148.429 37.4038 148.504C37.4838 148.573 37.5371 148.701 37.5638 148.888L37.6838 149.816ZM46.0151 153.096C45.4445 153.123 44.9645 153.173 44.5751 153.248C44.1858 153.317 43.8738 153.408 43.6391 153.52C43.4045 153.632 43.2365 153.763 43.1351 153.912C43.0338 154.061 42.9831 154.224 42.9831 154.4C42.9831 154.747 43.0845 154.995 43.2871 155.144C43.4951 155.293 43.7645 155.368 44.0951 155.368C44.5005 155.368 44.8498 155.296 45.1431 155.152C45.4418 155.003 45.7325 154.779 46.0151 154.48V153.096ZM41.4871 149.536C42.4311 148.672 43.5671 148.24 44.8951 148.24C45.3751 148.24 45.8045 148.32 46.1831 148.48C46.5618 148.635 46.8818 148.853 47.1431 149.136C47.4045 149.413 47.6018 149.747 47.7351 150.136C47.8738 150.525 47.9431 150.952 47.9431 151.416V156.6H47.0471C46.8605 156.6 46.7165 156.573 46.6151 156.52C46.5138 156.461 46.4338 156.347 46.3751 156.176L46.1991 155.584C45.9911 155.771 45.7885 155.936 45.5911 156.08C45.3938 156.219 45.1885 156.336 44.9751 156.432C44.7618 156.528 44.5325 156.6 44.2871 156.648C44.0471 156.701 43.7805 156.728 43.4871 156.728C43.1405 156.728 42.8205 156.683 42.5271 156.592C42.2338 156.496 41.9805 156.355 41.7671 156.168C41.5538 155.981 41.3885 155.749 41.2711 155.472C41.1538 155.195 41.0951 154.872 41.0951 154.504C41.0951 154.296 41.1298 154.091 41.1991 153.888C41.2685 153.68 41.3805 153.483 41.5351 153.296C41.6951 153.109 41.9005 152.933 42.1511 152.768C42.4018 152.603 42.7085 152.459 43.0711 152.336C43.4391 152.213 43.8658 152.115 44.3511 152.04C44.8365 151.96 45.3911 151.912 46.0151 151.896V151.416C46.0151 150.867 45.8978 150.461 45.6631 150.2C45.4285 149.933 45.0898 149.8 44.6471 149.8C44.3271 149.8 44.0605 149.837 43.8471 149.912C43.6391 149.987 43.4551 150.072 43.2951 150.168C43.1351 150.259 42.9885 150.341 42.8551 150.416C42.7271 150.491 42.5831 150.528 42.4231 150.528C42.2845 150.528 42.1671 150.493 42.0711 150.424C41.9751 150.349 41.8978 150.264 41.8391 150.168L41.4871 149.536ZM50.2395 156.6V149.88L49.5275 149.768C49.3728 149.736 49.2475 149.683 49.1515 149.608C49.0608 149.528 49.0155 149.416 49.0155 149.272V148.464H50.2395V147.856C50.2395 147.387 50.3088 146.965 50.4475 146.592C50.5915 146.219 50.7942 145.901 51.0555 145.64C51.3222 145.379 51.6448 145.179 52.0235 145.04C52.4022 144.901 52.8288 144.832 53.3035 144.832C53.6822 144.832 54.0342 144.883 54.3595 144.984L54.3195 145.976C54.3142 146.051 54.2928 146.112 54.2555 146.16C54.2182 146.203 54.1675 146.237 54.1035 146.264C54.0448 146.285 53.9755 146.301 53.8955 146.312C53.8155 146.317 53.7302 146.32 53.6395 146.32C53.4048 146.32 53.1942 146.347 53.0075 146.4C52.8262 146.448 52.6715 146.536 52.5435 146.664C52.4155 146.787 52.3168 146.952 52.2475 147.16C52.1835 147.363 52.1515 147.616 52.1515 147.92V148.464H54.2875V149.872H52.2155V156.6H50.2395ZM59.7026 153.096C59.132 153.123 58.652 153.173 58.2626 153.248C57.8733 153.317 57.5613 153.408 57.3266 153.52C57.092 153.632 56.924 153.763 56.8226 153.912C56.7213 154.061 56.6706 154.224 56.6706 154.4C56.6706 154.747 56.772 154.995 56.9746 155.144C57.1826 155.293 57.452 155.368 57.7826 155.368C58.188 155.368 58.5373 155.296 58.8306 155.152C59.1293 155.003 59.42 154.779 59.7026 154.48V153.096ZM55.1746 149.536C56.1186 148.672 57.2546 148.24 58.5826 148.24C59.0626 148.24 59.492 148.32 59.8706 148.48C60.2493 148.635 60.5693 148.853 60.8306 149.136C61.092 149.413 61.2893 149.747 61.4226 150.136C61.5613 150.525 61.6306 150.952 61.6306 151.416V156.6H60.7346C60.548 156.6 60.404 156.573 60.3026 156.52C60.2013 156.461 60.1213 156.347 60.0626 156.176L59.8866 155.584C59.6786 155.771 59.476 155.936 59.2786 156.08C59.0813 156.219 58.876 156.336 58.6626 156.432C58.4493 156.528 58.22 156.6 57.9746 156.648C57.7346 156.701 57.468 156.728 57.1746 156.728C56.828 156.728 56.508 156.683 56.2146 156.592C55.9213 156.496 55.668 156.355 55.4546 156.168C55.2413 155.981 55.076 155.749 54.9586 155.472C54.8413 155.195 54.7826 154.872 54.7826 154.504C54.7826 154.296 54.8173 154.091 54.8866 153.888C54.956 153.68 55.068 153.483 55.2226 153.296C55.3826 153.109 55.588 152.933 55.8386 152.768C56.0893 152.603 56.396 152.459 56.7586 152.336C57.1266 152.213 57.5533 152.115 58.0386 152.04C58.524 151.96 59.0786 151.912 59.7026 151.896V151.416C59.7026 150.867 59.5853 150.461 59.3506 150.2C59.116 149.933 58.7773 149.8 58.3346 149.8C58.0146 149.8 57.748 149.837 57.5346 149.912C57.3266 149.987 57.1426 150.072 56.9826 150.168C56.8226 150.259 56.676 150.341 56.5426 150.416C56.4146 150.491 56.2706 150.528 56.1106 150.528C55.972 150.528 55.8546 150.493 55.7586 150.424C55.6626 150.349 55.5853 150.264 55.5266 150.168L55.1746 149.536ZM66.1183 156.728C65.4036 156.728 64.8543 156.528 64.4703 156.128C64.0916 155.723 63.9023 155.165 63.9023 154.456V149.872H63.0623C62.9556 149.872 62.8649 149.837 62.7903 149.768C62.7156 149.699 62.6783 149.595 62.6783 149.456V148.672L63.9983 148.456L64.4143 146.216C64.4409 146.109 64.4916 146.027 64.5663 145.968C64.6409 145.909 64.7369 145.88 64.8543 145.88H65.8783V148.464H68.0703V149.872H65.8783V154.32C65.8783 154.576 65.9396 154.776 66.0623 154.92C66.1903 155.064 66.3636 155.136 66.5823 155.136C66.7049 155.136 66.8063 155.123 66.8863 155.096C66.9716 155.064 67.0436 155.032 67.1023 155C67.1663 154.968 67.2223 154.939 67.2703 154.912C67.3183 154.88 67.3663 154.864 67.4143 154.864C67.4729 154.864 67.5209 154.88 67.5583 154.912C67.5956 154.939 67.6356 154.981 67.6783 155.04L68.2703 156C67.9823 156.24 67.6516 156.421 67.2783 156.544C66.9049 156.667 66.5183 156.728 66.1183 156.728ZM79.1188 152.232L77.7108 148.384C77.6414 148.213 77.5694 148.011 77.4948 147.776C77.4201 147.541 77.3454 147.288 77.2708 147.016C77.2014 147.288 77.1294 147.544 77.0548 147.784C76.9801 148.019 76.9081 148.224 76.8388 148.4L75.4388 152.232H79.1188ZM82.9188 156.6H81.2548C81.0681 156.6 80.9161 156.555 80.7988 156.464C80.6814 156.368 80.5934 156.251 80.5347 156.112L79.6708 153.752H74.8788L74.0148 156.112C73.9721 156.235 73.8894 156.347 73.7668 156.448C73.6441 156.549 73.4921 156.6 73.3108 156.6H71.6307L76.1828 145.032H78.3748L82.9188 156.6ZM85.7885 144.712V156.6H83.8125V144.712H85.7885ZM92.0933 153.096C91.5226 153.123 91.0426 153.173 90.6533 153.248C90.2639 153.317 89.9519 153.408 89.7173 153.52C89.4826 153.632 89.3146 153.763 89.2133 153.912C89.1119 154.061 89.0613 154.224 89.0613 154.4C89.0613 154.747 89.1626 154.995 89.3653 155.144C89.5733 155.293 89.8426 155.368 90.1733 155.368C90.5786 155.368 90.9279 155.296 91.2213 155.152C91.5199 155.003 91.8106 154.779 92.0933 154.48V153.096ZM87.5653 149.536C88.5093 148.672 89.6453 148.24 90.9733 148.24C91.4533 148.24 91.8826 148.32 92.2613 148.48C92.6399 148.635 92.9599 148.853 93.2213 149.136C93.4826 149.413 93.6799 149.747 93.8133 150.136C93.9519 150.525 94.0213 150.952 94.0213 151.416V156.6H93.1253C92.9386 156.6 92.7946 156.573 92.6933 156.52C92.5919 156.461 92.5119 156.347 92.4533 156.176L92.2773 155.584C92.0693 155.771 91.8666 155.936 91.6693 156.08C91.4719 156.219 91.2666 156.336 91.0533 156.432C90.8399 156.528 90.6106 156.6 90.3653 156.648C90.1253 156.701 89.8586 156.728 89.5653 156.728C89.2186 156.728 88.8986 156.683 88.6053 156.592C88.3119 156.496 88.0586 156.355 87.8453 156.168C87.6319 155.981 87.4666 155.749 87.3493 155.472C87.2319 155.195 87.1733 154.872 87.1733 154.504C87.1733 154.296 87.2079 154.091 87.2773 153.888C87.3466 153.68 87.4586 153.483 87.6133 153.296C87.7733 153.109 87.9786 152.933 88.2293 152.768C88.4799 152.603 88.7866 152.459 89.1493 152.336C89.5173 152.213 89.9439 152.115 90.4293 152.04C90.9146 151.96 91.4693 151.912 92.0933 151.896V151.416C92.0933 150.867 91.9759 150.461 91.7413 150.2C91.5066 149.933 91.1679 149.8 90.7253 149.8C90.4053 149.8 90.1386 149.837 89.9253 149.912C89.7173 149.987 89.5333 150.072 89.3733 150.168C89.2133 150.259 89.0666 150.341 88.9333 150.416C88.8053 150.491 88.6613 150.528 88.5013 150.528C88.3626 150.528 88.2453 150.493 88.1493 150.424C88.0533 150.349 87.9759 150.264 87.9173 150.168L87.5653 149.536ZM95.8823 156.6V148.392H97.0903C97.3463 148.392 97.5143 148.512 97.5943 148.752L97.7223 149.36C97.8663 149.2 98.0156 149.053 98.1703 148.92C98.3303 148.787 98.4983 148.672 98.6743 148.576C98.8556 148.48 99.0476 148.405 99.2503 148.352C99.4583 148.293 99.6849 148.264 99.9303 148.264C100.448 148.264 100.872 148.405 101.202 148.688C101.538 148.965 101.789 149.336 101.954 149.8C102.082 149.528 102.242 149.296 102.434 149.104C102.626 148.907 102.837 148.747 103.066 148.624C103.296 148.501 103.538 148.411 103.794 148.352C104.056 148.293 104.317 148.264 104.578 148.264C105.032 148.264 105.434 148.333 105.786 148.472C106.138 148.611 106.434 148.813 106.674 149.08C106.914 149.347 107.096 149.672 107.218 150.056C107.346 150.44 107.41 150.88 107.41 151.376V156.6H105.434V151.376C105.434 150.853 105.32 150.461 105.09 150.2C104.861 149.933 104.525 149.8 104.082 149.8C103.88 149.8 103.69 149.835 103.514 149.904C103.344 149.973 103.192 150.075 103.058 150.208C102.93 150.336 102.829 150.499 102.754 150.696C102.68 150.893 102.642 151.12 102.642 151.376V156.6H100.658V151.376C100.658 150.827 100.546 150.427 100.322 150.176C100.104 149.925 99.7809 149.8 99.3543 149.8C99.0663 149.8 98.7969 149.872 98.5463 150.016C98.3009 150.155 98.0716 150.347 97.8583 150.592V156.6H95.8823Z" fill="#F8F8F8"/>
<path d="M265.557 149.519C264.871 149.271 264.148 149.146 263.419 149.15C261.065 149.15 259.402 150.338 259.392 152.039C259.373 153.289 260.571 153.993 261.477 154.414C262.407 154.846 262.718 155.114 262.714 155.497C262.709 156.086 261.97 156.349 261.29 156.349C260.345 156.349 259.832 156.221 259.042 155.889L258.748 155.751L258.413 157.715C258.988 157.95 260.019 158.156 261.083 158.175C263.59 158.175 265.224 156.997 265.243 155.18C265.262 154.184 264.621 153.428 263.254 152.805C262.429 152.403 261.913 152.129 261.913 151.717C261.913 151.353 262.354 150.97 263.274 150.97C263.885 150.955 264.492 151.067 265.057 151.3L265.282 151.4L265.613 149.509L265.557 149.519ZM271.674 149.313H269.833C269.258 149.313 268.831 149.466 268.577 150.037L265.039 158.05H267.542L268.046 156.737L271.099 156.742C271.175 157.048 271.39 158.049 271.39 158.049H273.6L271.674 149.313ZM256.004 149.241H258.386L256.896 157.982H254.513L256.004 149.236V149.241ZM249.945 154.055L250.189 155.271L252.523 149.313H255.049L251.291 158.035H248.776L246.714 150.649C246.698 150.588 246.67 150.53 246.631 150.48C246.593 150.43 246.544 150.388 246.489 150.358C245.748 149.973 244.963 149.681 244.15 149.49L244.179 149.307H248.023C248.541 149.327 248.962 149.49 249.106 150.046L249.945 154.059V154.055ZM268.725 154.95L269.68 152.503C269.665 152.526 269.876 152 269.995 151.669L270.158 152.42L270.71 154.945H268.725V154.95Z" fill="#F8F8F8"/>
<path d="M30.875 22.3247L23.75 30.8747H30.1625L29.45 36.5747L36.575 28.0247H30.1625L30.875 22.3247Z" stroke="#F8F8F8" stroke-width="1.1875" stroke-linecap="round" stroke-linejoin="round"/>
<path d="M269.384 24.1455C271.175 25.6042 272.155 27.4425 272.155 29.3408C272.155 31.2392 271.175 33.0775 269.384 34.5361" stroke="#F8F8F8" stroke-width="1.6625" stroke-linecap="round" stroke-linejoin="round"/>
<path d="M272.848 21.375C275.08 23.5754 276.312 26.4079 276.312 29.3411C276.312 32.2744 275.08 35.1069 272.848 37.3073" stroke="#F8F8F8" stroke-width="1.6625" stroke-linecap="round" stroke-linejoin="round"/>
<path d="M266.614 26.9165C267.064 27.6248 267.306 28.4721 267.306 29.341C267.306 30.2098 267.064 31.0572 266.614 31.7655" stroke="#F8F8F8" stroke-width="1.6625" stroke-linecap="round" stroke-linejoin="round"/>
</g>
<defs>
<linearGradient id="paint0_linear_41_2973" x1="-76.95" y1="-32.0625" x2="270.038" y2="146.063" gradientUnits="userSpaceOnUse">
<stop stop-color="#0038FF"/>
<stop offset="1" stop-color="#7919B4"/>
</linearGradient>
<clipPath id="clip0_41_2973">
<rect width="304" height="176.7" rx="15" fill="white"/>
</clipPath>
</defs>
</svg>
